<mxfile host="app.diagrams.net" modified="2021-12-16T04:48:45.580Z" agent="5.0 (Macintosh; Intel Mac OS X 10_15_7) AppleWebKit/537.36 (KHTML, like Gecko) Chrome/96.0.4664.110 Safari/537.36" etag="TOjaWMEPIECodNWLJm9x" version="15.9.5" type="github">
  <diagram id="cOIYiqj9oKA15FfcFj9o" name="Page-1">
    <mxGraphModel dx="2251" dy="801" grid="1" gridSize="10" guides="1" tooltips="1" connect="1" arrows="1" fold="1" page="1" pageScale="1" pageWidth="850" pageHeight="1100" math="0" shadow="0">
      <root>
        <mxCell id="0" />
        <mxCell id="1" parent="0" />
        <mxCell id="Kqs7fXENg0E2DFKlGv2c-4" value="" style="edgeStyle=orthogonalEdgeStyle;rounded=0;orthogonalLoop=1;jettySize=auto;html=1;fontFamily=Comic Sans MS;" parent="1" source="Kqs7fXENg0E2DFKlGv2c-1" target="Kqs7fXENg0E2DFKlGv2c-3" edge="1">
          <mxGeometry relative="1" as="geometry" />
        </mxCell>
        <mxCell id="Kqs7fXENg0E2DFKlGv2c-1" value="App.js" style="rounded=1;whiteSpace=wrap;html=1;sketch=1;fontFamily=Comic Sans MS;" parent="1" vertex="1">
          <mxGeometry x="220" y="30" width="120" height="60" as="geometry" />
        </mxCell>
        <mxCell id="Kqs7fXENg0E2DFKlGv2c-6" value="" style="edgeStyle=orthogonalEdgeStyle;rounded=0;orthogonalLoop=1;jettySize=auto;html=1;fontFamily=Comic Sans MS;" parent="1" source="Kqs7fXENg0E2DFKlGv2c-3" target="Kqs7fXENg0E2DFKlGv2c-5" edge="1">
          <mxGeometry relative="1" as="geometry" />
        </mxCell>
        <mxCell id="Kqs7fXENg0E2DFKlGv2c-10" value="" style="edgeStyle=orthogonalEdgeStyle;rounded=0;orthogonalLoop=1;jettySize=auto;html=1;fontFamily=Comic Sans MS;" parent="1" source="Kqs7fXENg0E2DFKlGv2c-3" target="Kqs7fXENg0E2DFKlGv2c-9" edge="1">
          <mxGeometry relative="1" as="geometry" />
        </mxCell>
        <mxCell id="Kqs7fXENg0E2DFKlGv2c-14" value="" style="edgeStyle=orthogonalEdgeStyle;rounded=0;orthogonalLoop=1;jettySize=auto;html=1;fontFamily=Comic Sans MS;" parent="1" source="Kqs7fXENg0E2DFKlGv2c-3" target="Kqs7fXENg0E2DFKlGv2c-13" edge="1">
          <mxGeometry relative="1" as="geometry" />
        </mxCell>
        <mxCell id="Kqs7fXENg0E2DFKlGv2c-24" value="" style="edgeStyle=orthogonalEdgeStyle;rounded=0;orthogonalLoop=1;jettySize=auto;html=1;fontFamily=Comic Sans MS;" parent="1" source="Kqs7fXENg0E2DFKlGv2c-3" target="Kqs7fXENg0E2DFKlGv2c-23" edge="1">
          <mxGeometry relative="1" as="geometry" />
        </mxCell>
        <mxCell id="Kqs7fXENg0E2DFKlGv2c-3" value="Home" style="rounded=1;whiteSpace=wrap;html=1;sketch=1;fontFamily=Comic Sans MS;" parent="1" vertex="1">
          <mxGeometry x="220" y="170" width="120" height="60" as="geometry" />
        </mxCell>
        <mxCell id="Kqs7fXENg0E2DFKlGv2c-8" value="" style="edgeStyle=orthogonalEdgeStyle;rounded=0;orthogonalLoop=1;jettySize=auto;html=1;fontFamily=Comic Sans MS;" parent="1" source="Kqs7fXENg0E2DFKlGv2c-5" target="Kqs7fXENg0E2DFKlGv2c-7" edge="1">
          <mxGeometry relative="1" as="geometry" />
        </mxCell>
        <mxCell id="Kqs7fXENg0E2DFKlGv2c-20" value="" style="edgeStyle=orthogonalEdgeStyle;rounded=0;orthogonalLoop=1;jettySize=auto;html=1;fontFamily=Comic Sans MS;" parent="1" source="Kqs7fXENg0E2DFKlGv2c-5" target="Kqs7fXENg0E2DFKlGv2c-19" edge="1">
          <mxGeometry relative="1" as="geometry" />
        </mxCell>
        <mxCell id="Kqs7fXENg0E2DFKlGv2c-22" value="" style="edgeStyle=orthogonalEdgeStyle;rounded=0;orthogonalLoop=1;jettySize=auto;html=1;fontFamily=Comic Sans MS;" parent="1" source="Kqs7fXENg0E2DFKlGv2c-5" target="Kqs7fXENg0E2DFKlGv2c-21" edge="1">
          <mxGeometry relative="1" as="geometry" />
        </mxCell>
        <mxCell id="Kqs7fXENg0E2DFKlGv2c-5" value="If logged in" style="ellipse;whiteSpace=wrap;html=1;fontFamily=Comic Sans MS;rounded=1;sketch=1;" parent="1" vertex="1">
          <mxGeometry x="420" y="170" width="120" height="60" as="geometry" />
        </mxCell>
        <mxCell id="Kqs7fXENg0E2DFKlGv2c-7" value="UserNavBar" style="whiteSpace=wrap;html=1;fontFamily=Comic Sans MS;rounded=1;sketch=1;" parent="1" vertex="1">
          <mxGeometry x="420" y="30" width="120" height="60" as="geometry" />
        </mxCell>
        <mxCell id="Kqs7fXENg0E2DFKlGv2c-12" value="" style="edgeStyle=orthogonalEdgeStyle;rounded=0;orthogonalLoop=1;jettySize=auto;html=1;fontFamily=Comic Sans MS;" parent="1" source="Kqs7fXENg0E2DFKlGv2c-9" target="Kqs7fXENg0E2DFKlGv2c-11" edge="1">
          <mxGeometry relative="1" as="geometry" />
        </mxCell>
        <mxCell id="Kqs7fXENg0E2DFKlGv2c-16" value="" style="edgeStyle=orthogonalEdgeStyle;rounded=0;orthogonalLoop=1;jettySize=auto;html=1;fontFamily=Comic Sans MS;" parent="1" source="Kqs7fXENg0E2DFKlGv2c-9" target="Kqs7fXENg0E2DFKlGv2c-15" edge="1">
          <mxGeometry relative="1" as="geometry" />
        </mxCell>
        <mxCell id="Kqs7fXENg0E2DFKlGv2c-18" value="" style="edgeStyle=orthogonalEdgeStyle;rounded=0;orthogonalLoop=1;jettySize=auto;html=1;fontFamily=Comic Sans MS;" parent="1" source="Kqs7fXENg0E2DFKlGv2c-9" target="Kqs7fXENg0E2DFKlGv2c-17" edge="1">
          <mxGeometry relative="1" as="geometry" />
        </mxCell>
        <mxCell id="Kqs7fXENg0E2DFKlGv2c-9" value="If logged out" style="ellipse;whiteSpace=wrap;html=1;fontFamily=Comic Sans MS;rounded=1;sketch=1;" parent="1" vertex="1">
          <mxGeometry x="20" y="170" width="120" height="60" as="geometry" />
        </mxCell>
        <mxCell id="Kqs7fXENg0E2DFKlGv2c-11" value="PublicNavBar" style="whiteSpace=wrap;html=1;fontFamily=Comic Sans MS;rounded=1;sketch=1;" parent="1" vertex="1">
          <mxGeometry x="20" y="30" width="120" height="60" as="geometry" />
        </mxCell>
        <mxCell id="jbr2Y4iP6GIciwRbjBso-2" value="" style="edgeStyle=orthogonalEdgeStyle;rounded=0;orthogonalLoop=1;jettySize=auto;html=1;" edge="1" parent="1" source="Kqs7fXENg0E2DFKlGv2c-13" target="jbr2Y4iP6GIciwRbjBso-1">
          <mxGeometry relative="1" as="geometry" />
        </mxCell>
        <mxCell id="Kqs7fXENg0E2DFKlGv2c-13" value="Jokes" style="rounded=1;whiteSpace=wrap;html=1;sketch=1;fontFamily=Comic Sans MS;" parent="1" vertex="1">
          <mxGeometry x="110" y="470" width="120" height="60" as="geometry" />
        </mxCell>
        <mxCell id="Kqs7fXENg0E2DFKlGv2c-15" value="SignUpForm" style="whiteSpace=wrap;html=1;fontFamily=Comic Sans MS;rounded=1;sketch=1;" parent="1" vertex="1">
          <mxGeometry x="20" y="310" width="120" height="60" as="geometry" />
        </mxCell>
        <mxCell id="Kqs7fXENg0E2DFKlGv2c-17" value="LoginForm" style="whiteSpace=wrap;html=1;fontFamily=Comic Sans MS;rounded=1;sketch=1;" parent="1" vertex="1">
          <mxGeometry x="-180" y="170" width="120" height="60" as="geometry" />
        </mxCell>
        <mxCell id="Kqs7fXENg0E2DFKlGv2c-19" value="ContributionForm" style="whiteSpace=wrap;html=1;fontFamily=Comic Sans MS;rounded=1;sketch=1;" parent="1" vertex="1">
          <mxGeometry x="620" y="170" width="120" height="60" as="geometry" />
        </mxCell>
        <mxCell id="jbr2Y4iP6GIciwRbjBso-4" value="" style="edgeStyle=orthogonalEdgeStyle;rounded=0;orthogonalLoop=1;jettySize=auto;html=1;entryX=0.5;entryY=1;entryDx=0;entryDy=0;" edge="1" parent="1" source="Kqs7fXENg0E2DFKlGv2c-21" target="jbr2Y4iP6GIciwRbjBso-1">
          <mxGeometry relative="1" as="geometry">
            <mxPoint x="-250" y="590" as="targetPoint" />
            <Array as="points">
              <mxPoint x="480" y="590" />
              <mxPoint x="-30" y="590" />
            </Array>
          </mxGeometry>
        </mxCell>
        <mxCell id="Kqs7fXENg0E2DFKlGv2c-21" value="LikedJokes" style="whiteSpace=wrap;html=1;fontFamily=Comic Sans MS;rounded=1;sketch=1;" parent="1" vertex="1">
          <mxGeometry x="420" y="310" width="120" height="60" as="geometry" />
        </mxCell>
        <mxCell id="Kqs7fXENg0E2DFKlGv2c-23" value="About" style="rounded=1;whiteSpace=wrap;html=1;sketch=1;fontFamily=Comic Sans MS;" parent="1" vertex="1">
          <mxGeometry x="330" y="470" width="120" height="60" as="geometry" />
        </mxCell>
        <mxCell id="jbr2Y4iP6GIciwRbjBso-1" value="JokeCard" style="rounded=1;whiteSpace=wrap;html=1;sketch=1;fontFamily=Comic Sans MS;" vertex="1" parent="1">
          <mxGeometry x="-90" y="470" width="120" height="60" as="geometry" />
        </mxCell>
      </root>
    </mxGraphModel>
  </diagram>
</mxfile>
